<svg width="300" height="74" viewBox="0 0 300 74" fill="none" xmlns="http://www.w3.org/2000/svg">
<path d="M23.0464 8.07843C26.1064 8.07843 28.5388 8.3923 30.1865 9.09849C31.8342 9.72623 33.325 10.4323 34.5019 11.1385C35.1296 11.5308 35.6789 11.7663 36.0712 12.0016C36.4635 12.1586 36.8558 12.3155 37.1696 12.3155C38.0328 12.3155 38.582 11.1385 38.8959 8.86306H40.7004C40.622 9.88312 40.622 11.0601 40.4651 12.4723C40.3866 13.8847 40.3081 15.6893 40.3081 17.8863C40.3081 20.1618 40.2297 23.0648 40.2297 26.7526H38.4251C38.1897 24.0064 37.5619 21.4171 36.542 18.8278C35.5219 16.2386 34.0312 14.1201 32.0696 12.5509C30.1865 10.9032 27.8326 10.04 25.0864 10.04C22.5756 10.04 20.5356 10.7462 18.8879 12.1586C17.2402 13.5708 16.4556 15.5324 16.4556 18.0432C16.4556 20.1618 17.0048 21.9663 18.0248 23.4572C19.0448 24.948 20.614 26.4387 22.6541 27.7726C24.6941 29.1849 27.1264 30.9111 29.9511 32.8726C32.4619 34.5204 34.7373 36.0896 36.6989 37.7374C38.6604 39.3851 40.3081 41.1897 41.4851 43.2297C42.662 45.2697 43.2898 47.7021 43.2898 50.5267C43.2898 53.9791 42.4267 56.8037 40.622 59.0792C38.8174 61.3546 36.4635 63.0023 33.4819 64.1793C30.5788 65.2777 27.3618 65.9054 23.831 65.9054C20.614 65.9054 18.0248 65.5916 16.0632 64.9639C14.1017 64.3362 12.5324 63.7084 11.1986 63.0023C10.0216 62.2961 9.15856 61.9038 8.53082 61.9038C7.66774 61.9038 7.11844 63.0808 6.80467 65.3562H5C5.07846 64.1007 5.15693 62.61 5.23539 60.9622C5.23539 59.3145 5.31385 57.1176 5.31385 54.4498C5.31385 51.7822 5.31385 48.3298 5.31385 44.2498H7.11844C7.35387 47.7021 7.90307 50.919 8.92313 53.9006C9.86465 56.8822 11.3555 59.3145 13.3955 61.1976C15.4355 63.0023 18.1033 63.9439 21.4771 63.9439C24.2233 63.9439 26.4988 63.2377 28.3819 61.7468C30.2649 60.2561 31.2065 58.0591 31.2065 55.156C31.2065 51.9391 30.108 49.2713 27.911 47.0744C25.7141 44.9559 22.8895 42.7589 19.4371 40.562C17.0048 38.9142 14.6509 37.3451 12.5324 35.6973C10.4139 34.0496 8.6877 32.245 7.43231 30.1265C6.17694 28.008 5.47078 25.5756 5.47078 22.6725C5.47078 19.3771 6.2554 16.6309 7.90307 14.5125C9.55088 12.3939 11.7478 10.8246 14.4155 9.80468C17.1617 8.54929 19.9864 8.07843 23.0464 8.07843Z" fill="#1A1A1A"/>
<path d="M77.7347 8C83.3056 8 88.1702 9.0985 92.2504 11.374C96.4088 13.6493 99.6259 16.8663 101.901 21.1033C104.176 25.3402 105.353 30.4403 105.353 36.4035C105.353 42.2882 104.176 47.3882 101.823 51.7821C99.4686 56.176 96.1734 59.6284 92.0149 62.0607C87.8565 64.4931 82.9917 65.7484 77.5778 65.7484C72.007 65.7484 67.2207 64.65 63.0623 62.3746C58.9037 60.0991 55.6867 56.8822 53.4114 52.6453C51.1359 48.4082 49.959 43.3082 49.959 37.345C49.959 31.4604 51.1359 26.3603 53.5683 21.9664C55.9222 17.5724 59.2176 14.1201 63.376 11.6877C67.4562 9.25539 72.3208 8 77.7347 8ZM77.4209 9.41237C74.5177 9.41237 71.9285 10.5893 69.7315 12.9432C67.5346 15.297 65.8869 18.514 64.71 22.6725C63.533 26.831 62.9837 31.6172 62.9837 37.0312C62.9837 42.6021 63.6899 47.3882 65.0238 51.5468C66.3577 55.6268 68.1623 58.8438 70.4377 61.0408C72.7132 63.2377 75.2239 64.4146 77.9701 64.4146C80.8732 64.4146 83.4626 63.2377 85.6595 60.8838C87.8565 58.5299 89.5042 55.3129 90.6811 51.1544C91.8581 46.996 92.4857 42.2097 92.4857 36.7958C92.4857 31.2249 91.8581 26.3603 90.4457 22.2802C89.1118 18.2002 87.3072 15.0617 85.0318 12.8647C82.6779 10.5108 80.167 9.41237 77.4209 9.41237Z" fill="#1A1A1A"/>
<path d="M110.846 9.09846C112.18 9.17691 113.906 9.17691 116.181 9.25535C118.378 9.33379 120.575 9.33379 122.772 9.33379C125.283 9.33379 127.715 9.33379 130.069 9.25535C132.423 9.17691 134.071 9.17691 135.09 9.17691C142.388 9.17691 147.802 10.3539 151.411 12.7862C155.021 15.1401 156.825 18.5139 156.825 22.9078C156.825 24.7125 156.432 26.4387 155.726 28.2434C155.021 30.0479 153.765 31.6956 151.96 33.2649C150.234 34.8342 147.802 36.0111 144.82 36.9526C141.761 37.8942 137.994 38.365 133.364 38.365H125.833V36.7957H132.58C135.641 36.7957 137.994 36.168 139.642 34.9911C141.211 33.8141 142.31 32.2449 142.937 30.2834C143.565 28.3218 143.879 26.1248 143.879 23.6925C143.879 19.534 143.172 16.3955 141.682 14.0416C140.191 11.7661 137.68 10.6677 134.15 10.6677C132.109 10.6677 130.776 11.1385 130.227 12.0016C129.598 12.8646 129.285 14.6693 129.285 17.4155V56.333C129.285 58.216 129.441 59.6284 129.677 60.5699C129.991 61.5115 130.54 62.1391 131.403 62.453C132.266 62.7669 133.522 63.0022 135.17 63.0807V64.6499C133.757 64.5715 131.953 64.493 129.834 64.4146C127.715 64.4146 125.518 64.4146 123.321 64.4146C120.81 64.4146 118.457 64.4146 116.26 64.4146C114.063 64.4146 112.258 64.493 110.924 64.6499V63.0807C112.572 63.0022 113.828 62.7669 114.69 62.453C115.554 62.1391 116.103 61.5115 116.338 60.5699C116.652 59.6284 116.809 58.216 116.809 56.333V17.4155C116.809 15.4539 116.652 14.0416 116.338 13.1785C116.025 12.237 115.475 11.6092 114.612 11.2954C113.749 10.9815 112.493 10.7462 110.846 10.6677V9.09846ZM125.675 36.9526C127.95 37.0311 129.912 37.1096 131.56 37.2665C133.208 37.4234 134.699 37.5804 135.876 37.6588C137.131 37.8157 138.229 37.8942 139.249 37.9727C144.036 38.365 147.566 39.385 149.841 41.0327C152.118 42.6805 153.608 45.1128 154.315 48.3298L156.119 56.4114C156.59 58.5299 157.061 59.9422 157.61 60.8053C158.159 61.6684 158.865 62.0607 159.885 62.0607C160.591 61.9823 161.14 61.8253 161.611 61.5115C162.082 61.1976 162.553 60.8053 163.023 60.256L164.122 61.1976C162.71 62.8453 161.219 64.0223 159.571 64.7285C157.923 65.4345 155.962 65.8269 153.686 65.8269C150.862 65.8269 148.508 65.1992 146.704 64.0223C144.898 62.8453 143.643 60.5699 143.094 57.3529L141.682 49.5067C141.29 47.3097 140.897 45.3481 140.348 43.7789C139.799 42.1312 139.093 40.7973 138.151 39.8558C137.209 38.9142 135.954 38.365 134.306 38.365H125.833L125.675 36.9526Z" fill="#1A1A1A"/>
<path d="M212.612 9.09849C212.376 11.7661 212.22 14.3555 212.22 16.7878C212.141 19.2201 212.063 21.1033 212.063 22.4371C212.063 23.614 212.063 24.7125 212.141 25.7325C212.22 26.7526 212.22 27.6941 212.298 28.4003H210.494C209.63 24.0064 208.611 20.554 207.355 17.9647C206.1 15.3754 204.53 13.5708 202.726 12.4723C200.922 11.3738 198.881 10.9031 196.448 10.9031H194.644V55.7052C194.644 57.8237 194.879 59.393 195.35 60.413C195.821 61.433 196.606 62.1392 197.783 62.5315C198.96 62.8453 200.764 63.0807 203.039 63.1592V64.7284C201.392 64.6499 199.274 64.6499 196.528 64.5715C193.86 64.493 191.034 64.493 188.053 64.493C185.15 64.493 182.483 64.493 179.893 64.5715C177.303 64.6499 175.264 64.6499 173.695 64.7284V63.1592C176.048 63.0807 177.853 62.9238 179.03 62.5315C180.207 62.2176 181.07 61.5114 181.462 60.413C181.855 59.393 182.09 57.8237 182.09 55.7052V10.9031H180.364C177.932 10.9031 175.892 11.4524 174.087 12.4723C172.282 13.5708 170.792 15.3754 169.536 17.8863C168.281 20.3971 167.182 23.9279 166.24 28.3218H164.436C164.514 27.6156 164.593 26.674 164.671 25.6541C164.671 24.634 164.671 23.5356 164.671 22.3587C164.671 21.0247 164.671 19.1417 164.514 16.7094C164.436 14.277 164.279 11.6877 164.122 9.01994C166.555 9.09849 169.144 9.09849 171.969 9.17693C174.793 9.25537 177.696 9.25537 180.599 9.25537C183.503 9.25537 186.091 9.25537 188.367 9.25537C190.721 9.25537 193.311 9.25537 196.135 9.25537C198.96 9.25537 201.862 9.25537 204.766 9.17693C207.747 9.17693 210.337 9.17693 212.612 9.09849Z" fill="#1A1A1A"/>
<path d="M241.565 8.99318C251.843 8.99318 259.532 11.3471 264.555 15.9763C269.576 20.6841 272.086 27.3534 272.086 36.0627C272.086 41.7906 270.831 46.7337 268.399 50.9707C265.966 55.2076 262.358 58.5816 257.65 60.9354C252.941 63.2892 247.371 64.4662 240.858 64.4662C239.603 64.4662 237.799 64.4662 235.445 64.3093C233.091 64.2309 231.13 64.2309 229.324 64.2309C227.049 64.2309 224.774 64.2309 222.577 64.2309C220.38 64.2309 218.575 64.3093 217.241 64.4662V62.8969C218.889 62.8185 220.145 62.5831 221.007 62.2693C221.871 61.9554 222.42 61.3277 222.655 60.3862C222.969 59.4446 223.126 58.0323 223.126 56.1491V17.3102C223.126 15.3487 222.969 13.9363 222.655 13.0732C222.342 12.1317 221.793 11.504 220.929 11.1901C220.065 10.8762 218.81 10.6409 217.163 10.5624V8.99318C218.497 9.07162 220.223 9.07162 222.498 9.22851C224.695 9.30705 226.892 9.30705 229.089 9.22851C230.972 9.15006 233.091 9.15007 235.523 9.07162C238.034 8.99318 239.996 8.99318 241.565 8.99318ZM241.487 10.4055C239.054 10.4055 237.484 10.8762 236.779 11.7394C236.073 12.6025 235.68 14.407 235.68 17.1533V56.3846C235.68 59.1308 236.073 60.9354 236.857 61.7985C237.642 62.6616 239.21 63.1324 241.565 63.1324C245.959 63.1324 249.411 62.1123 252.001 59.9938C254.511 57.9538 256.316 54.8937 257.493 50.9707C258.591 46.9691 259.141 42.1829 259.141 36.455C259.141 27.6672 257.806 21.1548 255.06 16.8394C252.236 12.524 247.763 10.4055 241.487 10.4055Z" fill="#1A1A1A"/>
<path d="M286.011 64.6108C291.495 64.6108 295.942 60.1644 295.942 54.6791C295.942 49.194 291.495 44.7474 286.011 44.7474C280.525 44.7474 276.078 49.194 276.078 54.6791C276.078 60.1644 280.525 64.6108 286.011 64.6108Z" fill="#005AF0"/>
</svg>
