<svg width="1363" height="1247" viewBox="0 0 1363 1247" fill="none" xmlns="http://www.w3.org/2000/svg">
<path d="M346.505 221.01L345.71 221.805L344.99 222.669C306.465 268.825 268.614 297.636 231.988 324.433C229.431 326.303 226.87 328.17 224.308 330.038C190.511 354.679 156.411 379.542 127.112 415.64C63.1204 494.482 25.5 621.663 25.5 910.5C25.5 1056.66 59.0397 1146.74 126.507 1190.68C192.544 1233.7 281.625 1225.7 374.156 1202.53C437.05 1186.78 506.49 1162.56 577.384 1137.83C611.631 1125.89 646.216 1113.82 680.567 1102.54C787.737 1067.33 894.572 1038.92 992.663 1038.92C1096.37 1038.92 1170.21 1026.66 1222.2 1002.39C1275.74 977.402 1305.11 940.113 1319.78 894.482C1333.83 850.771 1334.07 800.193 1332.88 749.064C1332.7 740.989 1332.47 732.864 1332.24 724.69C1331 679.799 1329.71 633.382 1334.41 585.06C1351.52 409.187 1282.13 268.553 1177.59 172.481C1073.66 76.9706 934.571 25.0001 809.74 25.0001C612.583 25.0001 464.118 103.397 346.505 221.01Z" fill="white" stroke="url(#paint0_linear_81:724)" stroke-width="50"/>
<defs>
<linearGradient id="paint0_linear_81:724" x1="1311.53" y1="327.544" x2="796.366" y2="526.579" gradientUnits="userSpaceOnUse">
<stop stop-color="#FFCC00"/>
<stop offset="1" stop-color="#FFCC00" stop-opacity="0"/>
</linearGradient>
</defs>
</svg>
